<?xml version="1.0" standalone="no"?>
<!DOCTYPE svg PUBLIC "-//W3C//DTD SVG 20010904//EN"
 "http://www.w3.org/TR/2001/REC-SVG-20010904/DTD/svg10.dtd">
<svg version="1.0" xmlns="http://www.w3.org/2000/svg"
 width="260.000000pt" height="260.000000pt" viewBox="0 0 260.000000 260.000000"
 preserveAspectRatio="xMidYMid meet">
<metadata>
Created by potrace 1.14, written by Peter Selinger 2001-2017
</metadata>
<g transform="translate(0.000000,260.000000) scale(0.100000,-0.100000)"
fill="#000000" stroke="none">
<path d="M1150 2593 c-439 -62 -790 -303 -997 -683 -104 -191 -153 -404 -148
-640 2 -80 6 -156 9 -170 4 -14 9 -38 12 -55 9 -54 25 -120 34 -140 4 -11 23
-57 41 -103 39 -101 109 -219 183 -312 198 -244 455 -401 766 -467 130 -27
382 -25 518 5 370 82 670 300 860 627 64 109 134 299 147 395 2 19 9 57 14 84
12 64 7 304 -8 386 -16 87 -51 213 -62 225 -5 5 -9 15 -9 22 0 23 -83 183
-134 261 -80 121 -238 277 -361 357 -137 89 -309 159 -469 191 -74 15 -332 26
-396 17z"/>
</g>
</svg>
