<svg width="30" height="24" viewBox="0 0 30 24" fill="none" xmlns="http://www.w3.org/2000/svg">
<path d="M28.4167 10.4167H1.58333C0.708883 10.4167 0 11.0193 0 11.7626V11.9042C0 12.6475 0.708883 13.2501 1.58333 13.2501H28.4167C29.2911 13.2501 30 12.6475 30 11.9042V11.7626C30 11.0193 29.2911 10.4167 28.4167 10.4167Z" fill="white"/>
<path d="M28.4167 20.3333H1.58333C0.708883 20.3333 0 20.9358 0 21.6791V21.8208C0 22.564 0.708883 23.1666 1.58333 23.1666H28.4167C29.2911 23.1666 30 22.564 30 21.8208V21.6791C30 20.9358 29.2911 20.3333 28.4167 20.3333Z" fill="white"/>
<path d="M28.4167 0.5H1.58333C0.708883 0.5 0 1.10255 0 1.84583V1.9875C0 2.73078 0.708883 3.33333 1.58333 3.33333H28.4167C29.2911 3.33333 30 2.73078 30 1.9875V1.84583C30 1.10255 29.2911 0.5 28.4167 0.5Z" fill="white"/>
</svg>
