<svg width="38" height="38" viewBox="0 0 38 38" fill="none" xmlns="http://www.w3.org/2000/svg">
<path fill-rule="evenodd" clip-rule="evenodd" d="M18.5908 0.666748C8.37377 0.666748 0.0908203 8.87508 0.0908203 19.0001C0.0908203 29.1251 8.37377 37.3334 18.5908 37.3334C28.8079 37.3334 37.0908 29.1251 37.0908 19.0001C37.0908 8.87508 28.8079 0.666748 18.5908 0.666748ZM13.0526 15.3217C12.7354 15.0182 12.3106 14.8502 11.8696 14.854C11.4286 14.8578 11.0068 15.033 10.695 15.3421C10.3832 15.6511 10.2063 16.0691 10.2025 16.5061C10.1986 16.9431 10.3681 17.3641 10.6745 17.6784L17.4018 24.3451C17.7172 24.6575 18.1449 24.8331 18.5908 24.8331C19.0368 24.8331 19.4645 24.6575 19.7799 24.3451L26.5071 17.6784C26.8135 17.3641 26.983 16.9431 26.9792 16.5061C26.9753 16.0691 26.7985 15.6511 26.4867 15.3421C26.1748 15.033 25.753 14.8578 25.312 14.854C24.8711 14.8502 24.4462 15.0182 24.129 15.3217L18.5908 20.8101L13.0526 15.3217Z" fill="#CA9F80"/>
</svg>
