<svg width="38" height="38" viewBox="0 0 38 38" fill="none" xmlns="http://www.w3.org/2000/svg">
<path fill-rule="evenodd" clip-rule="evenodd" d="M18.8371 0.666626C8.67552 0.666626 0.4375 8.87496 0.4375 19C0.4375 29.125 8.67552 37.3333 18.8371 37.3333C28.9988 37.3333 37.2368 29.125 37.2368 19C37.2368 8.87496 28.9988 0.666626 18.8371 0.666626ZM13.329 15.3216C13.0135 15.018 12.591 14.85 12.1524 14.8538C11.7138 14.8576 11.2943 15.0329 10.9841 15.3419C10.674 15.6509 10.4981 16.069 10.4943 16.506C10.4905 16.943 10.6591 17.364 10.9638 17.6783L17.6545 24.345C17.9682 24.6574 18.3936 24.8329 18.8371 24.8329C19.2807 24.8329 19.7061 24.6574 20.0197 24.345L26.7105 17.6783C27.0152 17.364 27.1838 16.943 27.18 16.506C27.1762 16.069 27.0003 15.6509 26.6901 15.3419C26.38 15.0329 25.9605 14.8576 25.5219 14.8538C25.0833 14.85 24.6608 15.018 24.3453 15.3216L18.8371 20.81L13.329 15.3216Z" fill="white"/>
</svg>
